<svg width="30" height="30" xmlns="http://www.w3.org/2000/svg"><g fill="none" fill-rule="evenodd"><circle fill="#026EC4" cx="15" cy="15" r="15"/><g fill="#FFF" fill-rule="nonzero" opacity=".6" stroke="#FFF"><path d="M17.495 21.862c.263 0 .477-.15.477-.334 0-.184-.214-.333-.477-.333h-4.353c-.264 0-.477.15-.477.333 0 .184.213.334.477.334h4.353z" stroke-width=".5"/><path d="M14.205 7.667c-1.72 0-3.158 1.26-3.45 2.918A3.033 3.033 0 0 0 8 13.613c0 1.686 1.354 3.054 3.023 3.054H18v-.551l-6.977-.092a2.386 2.386 0 0 1-2.387-2.41 2.386 2.386 0 0 1 2.387-2.412.32.32 0 0 0 .318-.29 2.888 2.888 0 0 1 2.864-2.602c.81 0 1.472.316 1.998.863.09.093.224.122.343.076.23-.088.557-.136.84-.136a2.24 2.24 0 0 1 2.228 1.964.32.32 0 0 0 .208.266c.91.337 1.542 1.22 1.542 2.27a2.386 2.386 0 0 1-2.387 2.41l-.977.093v.55h.977c1.67 0 3.023-1.367 3.023-3.053 0-1.24-.728-2.3-1.785-2.777a2.883 2.883 0 0 0-2.829-2.366c-.288 0-.59.048-.875.13-.613-.573-1.397-.933-2.306-.933z" stroke-width=".867"/><path d="M10.99 19.203c0 .184.213.334.477.334h7.703c.263 0 .477-.15.477-.334 0-.184-.214-.333-.477-.333h-7.703c-.264 0-.478.15-.478.333z" stroke-width=".5"/></g></g></svg>