<svg width="30" height="30" xmlns="http://www.w3.org/2000/svg"><g fill="none" fill-rule="evenodd"><circle fill="#B527D1" cx="15" cy="15" r="15"/><g fill="#FFF" fill-rule="nonzero" opacity=".6"><path d="M11.746 12.854h5.079a.32.32 0 0 1 .32.321v5.08c0 .206.169.374.376.374h.747a.375.375 0 0 0 .375-.375v-6.522a.375.375 0 0 0-.375-.375h-6.522a.375.375 0 0 0-.375.375v.747c0 .207.168.375.375.375z"/><path d="M14.478 10.122h5.079a.32.32 0 0 1 .32.321v5.079c0 .207.169.375.376.375H21a.375.375 0 0 0 .375-.375V9A.375.375 0 0 0 21 8.625h-6.522a.375.375 0 0 0-.375.375v.747c0 .207.168.375.375.375zM9 21.375h6.522a.375.375 0 0 0 .375-.375v-6.522a.375.375 0 0 0-.375-.375H9a.375.375 0 0 0-.375.375V21c0 .207.168.375.375.375z"/></g></g></svg>