<svg width="30" height="30" xmlns="http://www.w3.org/2000/svg"><g fill="none" fill-rule="evenodd"><circle fill="#41A7F1" cx="15" cy="15" r="15"/><path d="M14.515 10.478v.992c0 .384.281.54.615.349l.95-.54 1.213-.697.95-.54c.334-.191.334-.505 0-.697l-.95-.54-1.213-.696-.95-.523c-.334-.192-.615-.052-.615.313v.837c-3.27.139-5.89 2.822-5.89 6.097 0 1.602.633 3.065 1.653 4.163l1.248-1.237a4.32 4.32 0 0 1-1.143-2.926c0-2.317 1.829-4.216 4.132-4.355zm5.455.483l-1.27 1.237a4.279 4.279 0 0 1 1.163 2.926c0 2.265-1.773 4.111-4.028 4.338v-.976c0-.383-.287-.54-.627-.348l-.966.54-1.236.697-.966.522c-.34.192-.34.506 0 .697l.966.54 1.236.697.966.54c.34.192.627.052.627-.314v-.853c3.258-.227 5.818-2.857 5.818-6.08 0-1.602-.645-3.065-1.683-4.163z" fill="#FFF" fill-rule="nonzero" opacity=".6"/></g></svg>