<svg xmlns="http://www.w3.org/2000/svg" width="30" height="30"><g fill="none" fill-rule="evenodd"><circle cx="15" cy="15" r="15" fill="#0BAFA3"/><path d="M22.476 16.155l-1.934-6.378c-.13-.593-.713-1.077-1.295-1.077h-8.46c-.582 0-1.165.484-1.296 1.077l-1.933 6.377c.278-.162.597-.254.938-.254h13.042c.34 0 .66.093.938.255zm-1.023.918H8.41c-.775 0-1.41.663-1.41 1.474v.737c0 .811.634 1.474 1.41 1.474h13.043c.775 0 1.41-.663 1.41-1.474v-.737c0-.81-.634-1.474-1.41-1.474zm-11.81 2.58c-.388 0-.704-.33-.704-.737 0-.408.316-.737.705-.737.39 0 .705.33.705.737s-.316.737-.705.737zm2.645 0c-.39 0-.705-.33-.705-.737 0-.408.315-.737.705-.737.39 0 .705.33.705.737s-.316.737-.705.737z" fill="#FFF" fill-rule="nonzero" opacity=".6"/></g></svg>