<?xml version="1.0" encoding="UTF-8" standalone="no"?>
<svg width="30px" height="30px" viewBox="0 0 30 30" version="1.1" xmlns="http://www.w3.org/2000/svg" xmlns:xlink="http://www.w3.org/1999/xlink">
    <!-- Generator: sketchtool 48.2 (47327) - http://www.bohemiancoding.com/sketch -->
    <title>5BB19686-B720-44FC-B5DF-036E2698C081</title>
    <desc>Created with sketchtool.</desc>
    <defs></defs>
    <g id="Product_04_Cloud_Backup" stroke="none" stroke-width="1" fill="none" fill-rule="evenodd" transform="translate(-173.000000, -127.000000)">
        <g id="Group-34" transform="translate(0.000000, 95.000000)">
            <g id="Group-32">
                <g id="header">
                    <g id="header_cloud_volumes" transform="translate(173.000000, 32.000000)">
                        <g id="Group-29">
                            <g id="Group" transform="translate(9.375000, 6.750000)"></g>
                            <circle id="Oval-8" fill="#026EC4" cx="15" cy="15" r="15"></circle>
                            <g id="noun_1241392_cc" transform="translate(8.000000, 7.666667)" fill="#FFFFFF" fill-rule="nonzero" opacity="0.6" stroke="#FFFFFF">
                                <g id="Group-36">
                                    <path d="M9.49454545,14.195 C9.7581359,14.195 9.97181818,14.0457616 9.97181818,13.8616667 C9.97181818,13.6775718 9.7581359,13.5283333 9.49454545,13.5283333 L5.14181818,13.5283333 C4.87822773,13.5283333 4.66454545,13.6775718 4.66454545,13.8616667 C4.66454545,14.0457616 4.87822773,14.195 5.14181818,14.195 L9.49454545,14.195 Z" id="Shape" stroke-width="0.5"></path>
                                    <path d="M6.20454545,0 C4.48482045,0 3.04715886,1.26068143 2.75426136,2.91796875 C1.21238568,3.05677286 0,4.35280179 0,5.94642857 C0,7.63254643 1.35363995,9 3.02272727,9 L10,9 L10,8.4490099 L3.02272727,8.35714286 C1.69517823,8.35714286 0.636363636,7.287525 0.636363636,5.94642857 C0.636363636,4.60533214 1.69517886,3.53571429 3.02272727,3.53571429 C3.18742917,3.53643172 3.32545475,3.41006965 3.34090909,3.24441964 C3.48533675,1.78493304 4.71704975,0.642857143 6.20454545,0.642857143 C7.01437323,0.642857143 7.67667791,0.959481964 8.203125,1.50669643 C8.2921775,1.59901674 8.42720873,1.6286709 8.54616477,1.58203125 C8.77593118,1.49390518 9.10326534,1.44642857 9.38636364,1.44642857 C10.5293625,1.44642857 11.4801118,2.29991143 11.6136364,3.41015625 C11.6273733,3.53181699 11.708337,3.63502807 11.8224432,3.67633929 C12.7316138,4.01350339 13.3636364,4.89720536 13.3636364,5.94642857 C13.3636364,7.287525 12.3048218,8.35714286 10.9772727,8.35714286 L10,8.4490099 L10,9 L10.9772727,9 C12.64636,9 14,7.63254643 14,5.94642857 C14,4.70608393 13.2723241,3.64619893 12.2151989,3.16908482 C11.9703325,1.81811571 10.7872423,0.803571429 9.38636364,0.803571429 C9.09807977,0.803571429 8.79522159,0.851608929 8.51136364,0.934151786 C7.89847911,0.36052875 7.11420675,0 6.20454545,0 Z" id="Shape" stroke-width="0.866666667"></path>
                                    <path d="M2.98931818,11.5365217 C2.98931818,11.7206167 3.20300046,11.8698551 3.46659091,11.8698551 L11.1697727,11.8698551 C11.4333632,11.8698551 11.6470455,11.7206167 11.6470455,11.5365217 C11.6470455,11.3524268 11.4333632,11.2031884 11.1697727,11.2031884 L3.46659091,11.2031884 C3.20300046,11.2031884 2.98931818,11.3524268 2.98931818,11.5365217 Z" id="Shape" stroke-width="0.5"></path>
                                </g>
                            </g>
                        </g>
                    </g>
                </g>
            </g>
        </g>
    </g>
</svg>