<?xml version="1.0" encoding="UTF-8" standalone="no"?>
<svg width="30px" height="30px" viewBox="0 0 30 30" version="1.1" xmlns="http://www.w3.org/2000/svg" xmlns:xlink="http://www.w3.org/1999/xlink">
    <!-- Generator: sketchtool 48.2 (47327) - http://www.bohemiancoding.com/sketch -->
    <title>4A0734C1-4ACF-43AD-91BE-DFDE4AF0116C</title>
    <desc>Created with sketchtool.</desc>
    <defs></defs>
    <g id="H_02" stroke="none" stroke-width="1" fill="none" fill-rule="evenodd" transform="translate(-761.000000, -130.000000)">
        <g id="Group-34" transform="translate(0.000000, 98.000000)">
            <g id="Group-32">
                <g id="header">
                    <g id="header_saas_backup" transform="translate(761.000000, 32.000000)">
                        <g id="Group" transform="translate(9.375000, 6.750000)"></g>
                        <circle id="Oval-8" fill="#B527D1" cx="15" cy="15" r="15"></circle>
                        <g id="Group-27" transform="translate(8.625000, 8.625000)" fill="#FFFFFF" fill-rule="nonzero" opacity="0.6">
                            <path d="M3.12094156,4.22930195 L8.19987825,4.22930195 C8.37706213,4.22930195 8.52069805,4.37293787 8.52069805,4.55012175 L8.52069805,9.62905844 C8.52069805,9.83616522 8.68859127,10.0040584 8.89569805,10.0040584 L9.64285714,10.0040584 C9.84996392,10.0040584 10.0178571,9.83616522 10.0178571,9.62905844 L10.0178571,3.10714286 C10.0178571,2.90003608 9.84996392,2.73214286 9.64285714,2.73214286 L3.12094156,2.73214286 C2.91383478,2.73214286 2.74594156,2.90003608 2.74594156,3.10714286 L2.74594156,3.85430195 C2.74594156,4.06140873 2.91383478,4.22930195 3.12094156,4.22930195 Z" id="Shape"></path>
                            <path d="M5.85308442,1.49715909 L10.9320211,1.49715909 C11.109205,1.49715909 11.2528409,1.64079501 11.2528409,1.8179789 L11.2528409,6.89691558 C11.2528409,7.10402237 11.4207341,7.27191558 11.6278409,7.27191558 L12.375,7.27191558 C12.5821068,7.27191558 12.75,7.10402237 12.75,6.89691558 L12.75,0.375 C12.75,0.167893219 12.5821068,-3.80448985e-17 12.375,0 L5.85308442,0 C5.64597763,3.80448985e-17 5.47808442,0.167893219 5.47808442,0.375 L5.47808442,1.12215909 C5.47808442,1.32926587 5.64597763,1.49715909 5.85308442,1.49715909 Z" id="Shape"></path>
                            <path d="M0.375,12.75 L6.89691558,12.75 C7.10402237,12.75 7.27191558,12.5821068 7.27191558,12.375 L7.27191558,5.85308442 C7.27191558,5.64597763 7.10402237,5.47808442 6.89691558,5.47808442 L0.375,5.47808442 C0.167893219,5.47808442 3.01478856e-17,5.64597763 5.55111512e-17,5.85308442 L-1.11022302e-16,12.375 C-8.56590368e-17,12.5821068 0.167893219,12.75 0.375,12.75 Z" id="Shape"></path>
                        </g>
                    </g>
                </g>
            </g>
        </g>
    </g>
</svg>