<?xml version="1.0" encoding="UTF-8" standalone="no"?>
<svg width="30px" height="30px" viewBox="0 0 30 30" version="1.1" xmlns="http://www.w3.org/2000/svg" xmlns:xlink="http://www.w3.org/1999/xlink">
    <!-- Generator: sketchtool 48.2 (47327) - http://www.bohemiancoding.com/sketch -->
    <title>0DA0E2E9-3EAC-46BA-9DF4-951E15CF3ACF</title>
    <desc>Created with sketchtool.</desc>
    <defs></defs>
    <g id="H_02" stroke="none" stroke-width="1" fill="none" fill-rule="evenodd" transform="translate(-477.000000, -130.000000)">
        <g id="Group-34" transform="translate(0.000000, 98.000000)">
            <g id="Group-32">
                <g id="header">
                    <g id="header_cloud_sync" transform="translate(477.000000, 32.000000)">
                        <g id="Group" transform="translate(9.375000, 6.750000)"></g>
                        <circle id="Oval-8" fill="#41A7F1" cx="15" cy="15" r="15"></circle>
                        <g id="Group-20" transform="translate(8.625000, 7.500000)" fill="#FFFFFF" fill-rule="nonzero" opacity="0.600000024">
                            <path d="M5.89006434,2.977617 C5.89006434,3.15181505 5.89006434,3.3260131 5.89006434,3.50021115 L5.89006434,3.97054589 C5.89006434,4.35378159 6.17138085,4.51055984 6.5054442,4.31894198 L7.4548874,3.77892803 C7.78895075,3.58731018 8.33400148,3.27375369 8.66806484,3.08213583 L9.61750804,2.54212188 C9.95157139,2.35050402 9.95157139,2.03694753 9.61750804,1.84532968 L8.66806484,1.30531572 C8.33400148,1.11369787 7.78895075,0.800141378 7.4548874,0.608523523 L6.5054442,0.0859293731 C6.17138085,-0.105688482 5.89006434,0.0336699581 5.89006434,0.399485863 C5.89006434,0.643363133 5.89006434,0.956919622 5.89006434,1.2356365 C2.61975996,1.37499494 0,4.05764491 0,7.33256825 C0,8.93519031 0.632962138,10.3984539 1.65273447,11.4959016 L2.90107647,10.2590955 C2.1977852,9.49262407 1.75822816,8.46485557 1.75822816,7.33256825 C1.75822816,5.01573418 3.58678545,3.11697544 5.89006434,2.977617 Z" id="Shape"></path>
                            <path d="M11.3450617,3.46106557 L10.0740741,4.69787173 C10.7901235,5.46434315 11.2376543,6.49211164 11.2376543,7.62439897 C11.2376543,9.88897361 9.4654321,11.7354729 7.20987654,11.9619304 C7.20987654,11.8399918 7.20987654,11.6483739 7.20987654,11.4393363 L7.20987654,10.9864213 C7.20987654,10.6031856 6.92345679,10.4464074 6.58333333,10.6380252 L5.61666667,11.1780392 C5.27654321,11.369657 4.72160494,11.6832135 4.38148148,11.8748314 L3.41481481,12.3974255 C3.07469136,12.5890434 3.07469136,12.9025999 3.41481481,13.0942177 L4.38148148,13.6342317 C4.72160494,13.8258495 5.27654321,14.139406 5.61666667,14.3310239 L6.58333333,14.8710378 C6.92345679,15.0626557 7.20987654,14.9232973 7.20987654,14.5574814 C7.20987654,14.1916654 7.20987654,13.878109 7.20987654,13.878109 C7.20987654,13.878109 7.20987654,13.8084297 7.20987654,13.7039109 C10.4679012,13.4774534 13.0277778,10.8470629 13.0277778,7.62439897 C13.0277778,6.02177691 12.3833333,4.55851329 11.3450617,3.46106557 Z" id="Shape"></path>
                        </g>
                    </g>
                </g>
            </g>
        </g>
    </g>
</svg>